inDegrees=no
num_controls=7
num_derivatives=13
num_iterations=89
num_multipliers=7
num_parameters=0
num_slacks=7
num_states=26
objective=0.423211
objective_accelerations=0.062642
objective_balance=0.001384
objective_effort=0.015607
objective_height=0.337646
objective_ligament=0.005932
solver_duration=1340.044261
status=Solve_Succeeded
success=true
DataType=double
version=3
OpenSimVersion=4.5
endheader
time	/jointset/ground_pelvis/pelvis_tilt/value	/jointset/ground_pelvis/pelvis_tx/value	/jointset/ground_pelvis/pelvis_ty/value	/jointset/hip_l/hip_flexion_l/value	/jointset/hip_l/hip_adduction_l/value	/jointset/hip_l/hip_rotation_l/value	/jointset/back/lumbar_extension/value	/jointset/patellofemoral_l/patellar_flexion_l/value	/jointset/knee_l/knee_flexion_l/value	/jointset/knee_l/knee_adduction_l/value	/jointset/knee_l/knee_rotation_l/value	/jointset/ankle_l/ankle_angle_l/value	/jointset/subtalar_l/subtalar_angle_l/value	/jointset/ground_pelvis/pelvis_tilt/speed	/jointset/ground_pelvis/pelvis_tx/speed	/jointset/ground_pelvis/pelvis_ty/speed	/jointset/hip_l/hip_flexion_l/speed	/jointset/hip_l/hip_adduction_l/speed	/jointset/hip_l/hip_rotation_l/speed	/jointset/back/lumbar_extension/speed	/jointset/patellofemoral_l/patellar_flexion_l/speed	/jointset/knee_l/knee_flexion_l/speed	/jointset/knee_l/knee_adduction_l/speed	/jointset/knee_l/knee_rotation_l/speed	/jointset/ankle_l/ankle_angle_l/speed	/jointset/subtalar_l/subtalar_angle_l/speed	/forceset/tau_hip_flexion_l	/forceset/tau_hip_adduction_l	/forceset/tau_hip_rotation_l	/forceset/tau_knee_flexion_l	/forceset/tau_ankle_angle_l	/forceset/tau_subtalar_angle_l	/forceset/tau_lumbar_extension	lambda_cid13_p0	lambda_cid13_p1	lambda_cid13_p2	lambda_cid13_p3	lambda_cid13_p4	lambda_cid13_p5	lambda_cid14_p0	/jointset/ground_pelvis/pelvis_tilt/accel	/jointset/ground_pelvis/pelvis_tx/accel	/jointset/ground_pelvis/pelvis_ty/accel	/jointset/hip_l/hip_flexion_l/accel	/jointset/hip_l/hip_adduction_l/accel	/jointset/hip_l/hip_rotation_l/accel	/jointset/back/lumbar_extension/accel	/jointset/patellofemoral_l/patellar_flexion_l/accel	/jointset/knee_l/knee_flexion_l/accel	/jointset/knee_l/knee_adduction_l/accel	/jointset/knee_l/knee_rotation_l/accel	/jointset/ankle_l/ankle_angle_l/accel	/jointset/subtalar_l/subtalar_angle_l/accel	gamma_cid13_p0	gamma_cid13_p1	gamma_cid13_p2	gamma_cid13_p3	gamma_cid13_p4	gamma_cid13_p5	gamma_cid14_p0
0.5	-0.2226256107547861	0.02200022333154095	0.7590718350575273	1.044591813122485	-0.3584833531457916	0.003242602542638381	-0.4043213516314759	1.009151151605326	1.009151151605331	-0.01350827582620916	-0.1744930042055305	0.320505172462142	0.1732104263069859	-0.7606362766489932	-0.179750529160538	-0.5807428546249221	2.52869257811758	0.04719256735757575	0.5350562012372347	-0.2971604380506877	2.12610896264966	2.126108962649665	0.3600857869479006	0.0001326917370519313	0.5334596950941856	0.2960175317767753	-0.1035555447278034	0.03156358488802256	-0.003726709111433837	-0.2138293236025615	0.01801330062472111	0.0147600155019201	0.1165745952068953	-18.52957076507924	-0.8097677946317853	-2.843159204156951	-3.094168466576988	-437.7765097782408	-63.07061917864301	-3.348399043061864	0.3864102171138074	0.5010084001651565	-0.5223159231695383	-1.273539530445243	0.09938965479068756	-0.9206406778173836	1.489388054301524	-1.685581656941702	-1.685581656941701	-0.05997361987643306	-0.02703364052909623	-0.9505579571368471	0.08273815206888327	-5.314158465310696e-07	1.828102889437298e-06	8.593203700779188e-06	7.634698664883259e-07	-1.509671321398591e-06	4.489619533229201e-07	-8.821754066942751e-07
0.51	-0.2302107353596519	0.02022835145032564	0.7532397518152631	1.069809932784495	-0.3580090828762262	0.008557866691188229	-0.4072190924553944	1.030324583002812	1.030324583002799	-0.00992391919337055	-0.1744902397524278	0.3257910998076392	0.1761702914811284	-0.7562819651850834	-0.1745732813580978	-0.5855355992832486	2.514556585957668	0.04764394419003419	0.5280593984523835	-0.2823544948561336	2.108296143887153	2.10829614388716	0.3566650035995457	0.0004419389633109138	0.523697133184536	0.2959014057699314	-0.1078025352660214	0.03236613113346402	-0.003896626868275957	-0.2182055560230904	0.01893136510817698	0.0146596616061304	0.1199849142247282	-18.47441655257597	-0.5064766074502868	-3.199193574121007	-3.673172626796703	-441.5147786149456	-63.03821667926897	-2.804429556442764	0.4759302023213986	0.533834415400023	-0.4373161590552835	-1.539892960518074	0.01391688000004808	-0.5805820654663719	1.481182233561335	-1.87114104458068	-1.871141044580307	-0.5008633055668824	0.06488719882878803	-0.9933098522002366	-0.06830501654229867	-3.961023026305924e-07	8.159823544616974e-07	6.141358580525887e-06	4.770484329487453e-07	-1.129000525369836e-06	7.24498503618993e-08	-6.746325017446347e-07
0.52	-0.2377491191316202	0.01850980233615804	0.7473638286420378	1.094875439744555	-0.3575311178018308	0.01380488641456016	-0.4099677768910615	1.051311484400938	1.051311484400908	-0.00637731691666621	-0.1744833861681374	0.3309785606251757	0.1791270919873062	-0.7512881100695027	-0.1690859757509946	-0.5895108408172188	2.4981700377276	0.04793152832355765	0.5214073162016373	-0.2673491604004202	2.088802962777626	2.088802962777637	0.3525349157211166	0.0009505179745868957	0.5137663895020373	0.2954045981838366	-0.1120495258042394	0.0331686773789058	-0.004066544625123607	-0.2225817884436194	0.01984942959163292	0.01455930771034134	0.123395233242561	-18.41596668819333	-0.2069521866190908	-3.550979353032278	-4.309717831020089	-445.1785558485915	-63.1187056108271	-2.313612719245651	0.5143189474480048	0.5630199610977747	-0.3588152982983016	-1.723650744476553	0.06663111500369054	-0.8516965709963841	1.529266306533376	-2.021654126345551	-2.021654126345551	-0.2018345258912602	0.01283271647443531	-0.9841943117066621	0.006601836218698726	-1.787495288585106e-07	-2.368732701568095e-06	1.210001612307407e-06	-2.419821704335375e-07	-4.642510763486764e-07	-1.564151332072387e-06	-3.517825946736044e-07
0.53	-0.2452345154978628	0.01684712401955915	0.7414522785505593	1.119766691529123	-0.3570497800895957	0.01897276353670008	-0.4125658570540484	1.072094814002882	1.072094814002875	-0.002861798225985264	-0.1744771059243203	0.3360655621829833	0.1820788907462279	-0.7456905762753552	-0.1634501411990476	-0.5926585331877605	2.479762983456864	0.04830042733434269	0.5122969531963313	-0.252284595849267	2.067558301293283	2.067558301293289	0.3503716328148727	0.0003567588606397559	0.5035233114999398	0.2948333023047355	-0.1169769445771947	0.03332946399677564	-0.004230040480813632	-0.2254902887608197	0.01757603855449518	0.01518039680756583	0.1270692530690775	-19.34218175074868	-0.2292180787651286	-3.644860973720474	-3.809668569397336	-448.948683763066	-63.83693538965797	-1.874516362592439	0.5975251194922921	0.5636732267406128	-0.2716725807751421	-1.946861243509118	0.01715166358066061	-0.9215924363166589	1.492392981559381	-2.22153416618469	-2.221534166185403	-0.2537075025689337	-0.08820085616537765	-1.061147816399806	-0.1064682173778002	-5.854155755664414e-08	-3.793069911086971e-06	-1.30724029141833e-06	-5.869040798323574e-07	-1.061469367894029e-07	-2.292543784491383e-06	-1.688457929726426e-07
0.54	-0.2526609256213451	0.01524076565337923	0.7355134662605067	1.144464347075955	-0.3565657269133599	0.02405335977458315	-0.4150138232810931	1.092656564588641	1.092656564588658	0.0006260611697176902	-0.1744753073978099	0.3410467763063824	0.185021481962878	-0.7394908615174406	-0.157821985667202	-0.5949632805320236	2.459450790180652	0.0484746211237177	0.503951139350267	-0.2373263732119905	2.0444871595407	2.044487159540701	0.3470030567255095	5.417451324906189e-05	0.4926089026203022	0.2935630897295027	-0.1219043633501501	0.0334902506146455	-0.004393536336503027	-0.22839878907802	0.01530264751735743	0.01580148590479033	0.1307432728955939	-20.26533822919063	-0.2616622594704054	-3.726107963945514	-3.320713431603126	-452.6793850610445	-64.58823871144361	-1.485372333056387	0.6347551402014392	0.5614841570775402	-0.1902262930425646	-2.104678545571395	0.02769007072168412	-0.698786739148043	1.507997923758028	-2.386950179993559	-2.386950179993558	-0.4428931625151252	0.07106766978572421	-1.118460487214686	-0.1331815030076504	-4.581294217927266e-08	-3.269755035104386e-06	-1.15354637910951e-06	-5.179184980154262e-07	-8.730994812413538e-08	-2.016109556893446e-06	-1.407064695534608e-07
